<?xml version="1.0" encoding="UTF-8" standalone="no"?>
<!DOCTYPE svg PUBLIC "-//W3C//DTD SVG 1.1//EN"
 "http://www.w3.org/Graphics/SVG/1.1/DTD/svg11.dtd">
<!-- Generated by graphviz version 2.40.1 (20161225.0304)
 -->
<!-- Title: bridocgen Pages: 1 -->
<svg width="422pt" height="288pt"
 viewBox="0.00 0.00 422.00 288.00" xmlns="http://www.w3.org/2000/svg" xmlns:xlink="http://www.w3.org/1999/xlink">
<g id="graph0" class="graph" transform="scale(1 1) rotate(0) translate(4 284)">
<title>bridocgen</title>
<polygon fill="#ffffff" stroke="transparent" points="-4,4 -4,-284 418,-284 418,4 -4,4"/>
<!-- type of node? -->
<g id="node1" class="node">
<title>type of node?</title>
<polygon fill="none" stroke="#000000" points="204,-207 100.2703,-189 204,-171 307.7297,-189 204,-207"/>
<text text-anchor="middle" x="204" y="-185.3" font-family="Times,serif" font-size="14.00" fill="#000000">type of node?</text>
</g>
<!-- layoutSig -->
<g id="node3" class="node">
<title>layoutSig</title>
<polygon fill="#ffffff" stroke="transparent" points="124,-120 0,-120 0,-73 124,-73 124,-120"/>
<text text-anchor="middle" x="62" y="-107.8" font-family="Times,serif" font-size="14.00" fill="#000000">layoutSig</text>
<text text-anchor="middle" x="62" y="-92.8" font-family="Times,serif" font-size="14.00" fill="#000000">+recursion</text>
<text text-anchor="middle" x="62" y="-77.8" font-family="Times,serif" font-size="14.00" fill="#000000">(layoutType etc.)</text>
</g>
<!-- type of node?&#45;&gt;layoutSig -->
<g id="edge2" class="edge">
<title>type of node?&#45;&gt;layoutSig</title>
<path fill="none" stroke="#666666" stroke-width="2" d="M178.9575,-175.1317C167.5433,-168.6399 153.9423,-160.6629 142,-153 125.9719,-142.7155 108.6559,-130.6155 94.2468,-120.257"/>
<text text-anchor="middle" x="171" y="-141.8" font-family="Times,serif" font-size="14.00" fill="#000000">type sig</text>
</g>
<!-- layoutBind -->
<g id="node5" class="node">
<title>layoutBind</title>
<polygon fill="#ffffff" stroke="transparent" points="265.5,-120 142.5,-120 142.5,-73 265.5,-73 265.5,-120"/>
<text text-anchor="middle" x="204" y="-107.8" font-family="Times,serif" font-size="14.00" fill="#000000">layoutBind</text>
<text text-anchor="middle" x="204" y="-92.8" font-family="Times,serif" font-size="14.00" fill="#000000">+recursion</text>
<text text-anchor="middle" x="204" y="-77.8" font-family="Times,serif" font-size="14.00" fill="#000000">(layoutExpr etc.)</text>
</g>
<!-- type of node?&#45;&gt;layoutBind -->
<g id="edge4" class="edge">
<title>type of node?&#45;&gt;layoutBind</title>
<path fill="none" stroke="#666666" stroke-width="2" d="M204,-170.725C204,-156.1933 204,-135.7597 204,-120.0099"/>
<text text-anchor="middle" x="235.5" y="-141.8" font-family="Times,serif" font-size="14.00" fill="#000000">equation</text>
</g>
<!-- layoutByExact -->
<g id="node6" class="node">
<title>layoutByExact</title>
<polygon fill="#ffffff" stroke="transparent" points="390.5,-114.5 283.5,-114.5 283.5,-78.5 390.5,-78.5 390.5,-114.5"/>
<text text-anchor="middle" x="337" y="-92.8" font-family="Times,serif" font-size="14.00" fill="#000000">layoutByExact</text>
</g>
<!-- type of node?&#45;&gt;layoutByExact -->
<g id="edge6" class="edge">
<title>type of node?&#45;&gt;layoutByExact</title>
<path fill="none" stroke="#666666" stroke-width="2" d="M231.8379,-175.7432C244.1924,-169.434 258.6893,-161.4317 271,-153 287.8,-141.4935 305.2353,-126.4106 317.9639,-114.7232"/>
<text text-anchor="middle" x="352.5" y="-141.8" font-family="Times,serif" font-size="14.00" fill="#000000">not handled (yet)</text>
</g>
<!-- top&#45;level module children -->
<g id="node2" class="node">
<title>top&#45;level module children</title>
<polygon fill="#d3d3d3" stroke="#d3d3d3" points="303.5,-280 104.5,-280 104.5,-244 303.5,-244 303.5,-280"/>
<text text-anchor="middle" x="204" y="-258.3" font-family="Times,serif" font-size="14.00" fill="#000000">top&#45;level module children</text>
</g>
<!-- top&#45;level module children&#45;&gt;type of node? -->
<g id="edge1" class="edge">
<title>top&#45;level module children&#45;&gt;type of node?</title>
<path fill="none" stroke="#666666" stroke-width="2" d="M204,-243.9551C204,-235.8828 204,-226.1764 204,-217.1817"/>
<polygon fill="#666666" stroke="#666666" stroke-width="2" points="207.5001,-217.0903 204,-207.0904 200.5001,-217.0904 207.5001,-217.0903"/>
</g>
<!-- BriDoc (tree) -->
<g id="node4" class="node">
<title>BriDoc (tree)</title>
<polygon fill="#d3d3d3" stroke="#d3d3d3" points="259,-36 149,-36 149,0 259,0 259,-36"/>
<text text-anchor="middle" x="204" y="-14.3" font-family="Times,serif" font-size="14.00" fill="#000000">BriDoc (tree)</text>
</g>
<!-- layoutSig&#45;&gt;BriDoc (tree) -->
<g id="edge3" class="edge">
<title>layoutSig&#45;&gt;BriDoc (tree)</title>
<path fill="none" stroke="#666666" stroke-width="2" d="M104.6047,-72.9474C122.8312,-62.8715 144.0469,-51.1431 162.1855,-41.1157"/>
<polygon fill="#666666" stroke="#666666" stroke-width="2" points="164.2999,-43.9462 171.3583,-36.0449 160.9132,-37.8199 164.2999,-43.9462"/>
</g>
<!-- layoutBind&#45;&gt;BriDoc (tree) -->
<g id="edge5" class="edge">
<title>layoutBind&#45;&gt;BriDoc (tree)</title>
<path fill="none" stroke="#666666" stroke-width="2" d="M204,-72.9474C204,-64.5354 204,-54.9716 204,-46.2075"/>
<polygon fill="#666666" stroke="#666666" stroke-width="2" points="207.5001,-46.0449 204,-36.0449 200.5001,-46.0449 207.5001,-46.0449"/>
</g>
<!-- layoutByExact&#45;&gt;BriDoc (tree) -->
<g id="edge7" class="edge">
<title>layoutByExact&#45;&gt;BriDoc (tree)</title>
<path fill="none" stroke="#666666" stroke-width="2" d="M306.4871,-78.4905C287.7815,-67.45 263.6397,-53.2009 243.4861,-41.3057"/>
<polygon fill="#666666" stroke="#666666" stroke-width="2" points="245.2224,-38.2664 234.8315,-36.1975 241.6643,-44.2947 245.2224,-38.2664"/>
</g>
</g>
</svg>
